<svg width="12" height="15" viewBox="0 0 12 15" fill="none" xmlns="http://www.w3.org/2000/svg">
<path fill-rule="evenodd" clip-rule="evenodd" d="M5.83333 13.8333C5.83333 13.8333 11.1667 9.83333 11.1667 5.83333C11.1667 4.41885 10.6048 3.06229 9.60457 2.0621C8.60437 1.0619 7.24782 0.5 5.83333 0.5C4.41885 0.5 3.06229 1.0619 2.0621 2.0621C1.0619 3.06229 0.5 4.41885 0.5 5.83333C0.5 9.83333 5.83333 13.8333 5.83333 13.8333ZM8.5 5.83333C8.5 7.30609 7.30609 8.5 5.83333 8.5C4.36057 8.5 3.16667 7.30609 3.16667 5.83333C3.16667 4.36057 4.36057 3.16667 5.83333 3.16667C7.30609 3.16667 8.5 4.36057 8.5 5.83333Z" fill="#8162FF"/>
<path d="M5.83333 13.8333L5.53333 14.2333C5.71111 14.3667 5.95556 14.3667 6.13333 14.2333L5.83333 13.8333ZM9.60457 2.0621L9.95812 1.70854V1.70854L9.60457 2.0621ZM2.0621 2.0621L2.41565 2.41565L2.0621 2.0621ZM10.6667 5.83333C10.6667 7.63582 9.4481 9.51412 8.12629 11.0012C7.47712 11.7315 6.8264 12.3417 6.33741 12.7695C6.09328 12.9832 5.89036 13.1505 5.7493 13.2639C5.6788 13.3205 5.62382 13.3637 5.58694 13.3922C5.56851 13.4065 5.55461 13.4172 5.54556 13.4241C5.54104 13.4275 5.53773 13.43 5.53568 13.4316C5.53466 13.4323 5.53394 13.4329 5.53355 13.4332C5.53335 13.4333 5.53324 13.4334 5.5332 13.4334C5.53318 13.4334 5.53322 13.4334 5.53321 13.4334C5.53326 13.4334 5.53333 13.4333 5.83333 13.8333C6.13333 14.2333 6.13345 14.2332 6.13358 14.2331C6.13365 14.2331 6.13381 14.233 6.13395 14.2329C6.13424 14.2327 6.13461 14.2324 6.13506 14.232C6.13596 14.2314 6.13718 14.2304 6.13872 14.2293C6.14179 14.227 6.14613 14.2237 6.1517 14.2194C6.16284 14.2109 6.17889 14.1986 6.19951 14.1826C6.24077 14.1507 6.30037 14.1039 6.3757 14.0434C6.52631 13.9224 6.74005 13.746 6.99592 13.5221C7.50694 13.075 8.18954 12.4352 8.8737 11.6655C10.2186 10.1525 11.6667 8.03085 11.6667 5.83333H10.6667ZM9.25102 2.41565C10.1574 3.32208 10.6667 4.55145 10.6667 5.83333H11.6667C11.6667 4.28624 11.0521 2.80251 9.95812 1.70854L9.25102 2.41565ZM5.83333 1C7.11521 1 8.34459 1.50922 9.25102 2.41565L9.95812 1.70854C8.86416 0.614582 7.38043 0 5.83333 0V1ZM2.41565 2.41565C3.32208 1.50922 4.55145 1 5.83333 1V0C4.28624 0 2.80251 0.614582 1.70854 1.70854L2.41565 2.41565ZM1 5.83333C1 4.55145 1.50922 3.32208 2.41565 2.41565L1.70854 1.70854C0.614582 2.80251 0 4.28624 0 5.83333H1ZM5.83333 13.8333C6.13333 13.4333 6.13341 13.4334 6.13346 13.4334C6.13345 13.4334 6.13348 13.4334 6.13347 13.4334C6.13343 13.4334 6.13331 13.4333 6.13312 13.4332C6.13272 13.4329 6.13201 13.4323 6.13098 13.4316C6.12893 13.43 6.12563 13.4275 6.1211 13.4241C6.11206 13.4172 6.09816 13.4065 6.07972 13.3922C6.04285 13.3637 5.98787 13.3205 5.91736 13.2639C5.77631 13.1505 5.57339 12.9832 5.32925 12.7695C4.84027 12.3417 4.18954 11.7315 3.54037 11.0012C2.21857 9.51412 1 7.63582 1 5.83333H0C0 8.03085 1.4481 10.1525 2.79296 11.6655C3.47712 12.4352 4.15973 13.075 4.67075 13.5221C4.92661 13.746 5.14036 13.9224 5.29097 14.0434C5.3663 14.1039 5.4259 14.1507 5.46715 14.1826C5.48778 14.1986 5.50383 14.2109 5.51496 14.2194C5.52053 14.2237 5.52488 14.227 5.52795 14.2293C5.52949 14.2304 5.53071 14.2314 5.53161 14.232C5.53206 14.2324 5.53243 14.2327 5.53271 14.2329C5.53286 14.233 5.53301 14.2331 5.53308 14.2331C5.53322 14.2332 5.53333 14.2333 5.83333 13.8333ZM5.83333 9C7.58224 9 9 7.58223 9 5.83333H8C8 7.02995 7.02995 8 5.83333 8V9ZM2.66667 5.83333C2.66667 7.58223 4.08443 9 5.83333 9V8C4.63672 8 3.66667 7.02995 3.66667 5.83333H2.66667ZM5.83333 2.66667C4.08443 2.66667 2.66667 4.08443 2.66667 5.83333H3.66667C3.66667 4.63672 4.63672 3.66667 5.83333 3.66667V2.66667ZM9 5.83333C9 4.08443 7.58224 2.66667 5.83333 2.66667V3.66667C7.02995 3.66667 8 4.63672 8 5.83333H9Z" fill="#8162FF"/>
</svg>
